<svg width="106" height="19" viewBox="0 0 106 19" fill="none" xmlns="http://www.w3.org/2000/svg">
<path d="M2.39025 1.008H0.66225V18H2.39025V1.008ZM9.53663 1.008H6.89663V18H8.62463V3.24H8.67263L14.8166 18H15.7286L21.8726 3.24H21.9206V18H23.6486V1.008H21.0086L15.3206 15.072H15.2966L9.53663 1.008ZM28.1544 18H33.7944C38.0424 18 42.7224 15.168 42.7224 9.504C42.7224 3.84 38.0424 1.008 33.7944 1.008H28.1544V18ZM29.8824 2.544H33.3144C38.4264 2.544 40.8984 6 40.8984 9.504C40.8984 13.008 38.4264 16.464 33.3144 16.464H29.8824V2.544ZM46.3185 18H51.3585C55.2705 18 57.6945 16.128 57.6945 13.296C57.6945 10.824 56.0625 9.288 53.8545 9.048V9C55.6545 8.592 56.8545 7.128 56.8545 5.352C56.8545 1.944 53.9745 1.008 51.3825 1.008H46.3185V18ZM48.0465 2.496H51.0465C53.2785 2.496 55.1265 3.312 55.1265 5.472C55.1265 7.728 53.1825 8.448 51.5265 8.448H48.0465V2.496ZM48.0465 9.864H51.5745C54.3345 9.864 55.9425 10.968 55.9425 13.2C55.9425 15.576 53.7585 16.512 51.2625 16.512H48.0465V9.864ZM64.2163 7.92C64.2163 7.248 63.6883 6.624 62.9203 6.624C62.1523 6.624 61.6243 7.248 61.6243 7.92C61.6243 8.592 62.1523 9.216 62.9203 9.216C63.6883 9.216 64.2163 8.592 64.2163 7.92ZM64.2163 16.848C64.2163 16.176 63.6883 15.552 62.9203 15.552C62.1523 15.552 61.6243 16.176 61.6243 16.848C61.6243 17.52 62.1523 18.144 62.9203 18.144C63.6883 18.144 64.2163 17.52 64.2163 16.848ZM76.8836 18H78.8756L83.5076 10.536C84.3476 9.168 85.0436 7.68 85.0436 5.928C85.0436 2.76 82.7156 0.576 79.5236 0.576C76.3316 0.576 74.0036 2.76 74.0036 5.928C74.0036 9.024 76.2356 11.16 79.1876 11.16C80.0516 11.16 81.1076 10.92 81.6116 10.536L81.6596 10.584L76.8836 18ZM83.3156 5.928C83.3156 8.112 81.8516 9.768 79.5236 9.768C77.1956 9.768 75.7316 8.112 75.7316 5.928C75.7316 3.72 77.2916 2.04 79.5236 2.04C81.7556 2.04 83.3156 3.72 83.3156 5.928ZM90.8535 16.848C90.8535 16.176 90.3255 15.552 89.5575 15.552C88.7895 15.552 88.2615 16.176 88.2615 16.848C88.2615 17.52 88.7895 18.144 89.5575 18.144C90.3255 18.144 90.8535 17.52 90.8535 16.848ZM101.864 9V8.952C103.376 8.448 104.432 6.864 104.432 5.112C104.432 2.352 102.224 0.576 99.6319 0.576C97.0399 0.576 94.8319 2.352 94.8319 5.112C94.8319 6.864 95.8879 8.448 97.3999 8.952V9C95.5519 9.552 94.1839 11.256 94.1839 13.536C94.1839 16.512 96.7279 18.432 99.6319 18.432C102.536 18.432 105.08 16.512 105.08 13.536C105.08 11.256 103.712 9.528 101.864 9ZM96.5119 5.208C96.5119 3.384 97.8559 2.04 99.6319 2.04C101.408 2.04 102.752 3.384 102.752 5.208C102.752 6.984 101.36 8.256 99.6319 8.256C97.9039 8.256 96.5119 6.984 96.5119 5.208ZM95.9119 13.344C95.9119 11.304 97.3999 9.792 99.6319 9.792C101.864 9.792 103.352 11.304 103.352 13.344C103.352 15.408 101.864 16.968 99.6319 16.968C97.3999 16.968 95.9119 15.408 95.9119 13.344Z" fill="#A7A9BE"/>
</svg>
